<svg id="visual" viewBox="0 0 960 540" width="960" height="540" xmlns="http://www.w3.org/2000/svg" xmlns:xlink="http://www.w3.org/1999/xlink" version="1.1"><rect x="0" y="0" width="960" height="540" fill="#1d3557"></rect><g transform="translate(480.9925243802826 286.12848003385466)"><path d="M73.4 -96.7C97.5 -67.2 121.2 -46.4 123.4 -23.3C125.7 -0.2 106.6 25.2 89.2 47.9C71.8 70.6 56.1 90.8 31.9 108.8C7.6 126.9 -25.1 142.8 -56.2 138.4C-87.3 134 -116.8 109.3 -123.8 79.9C-130.8 50.5 -115.3 16.4 -108.3 -18.4C-101.4 -53.3 -103.1 -89.1 -86.5 -119.9C-69.8 -150.7 -34.9 -176.6 -5.1 -170.5C24.6 -164.4 49.3 -126.2 73.4 -96.7" fill="#457b9d"></path></g></svg>