<svg id="visual" viewBox="0 0 960 540" width="960" height="540" xmlns="http://www.w3.org/2000/svg" xmlns:xlink="http://www.w3.org/1999/xlink" version="1.1"><rect x="0" y="0" width="960" height="540" fill="#1d3557"></rect><g transform="translate(485.1161636696441 249.78472245899295)"><path d="M176.4 -186.7C227.3 -167.6 266.3 -110.7 280.1 -47.2C293.9 16.3 282.5 86.4 242.9 126.4C203.3 166.4 135.5 176.2 72.1 200.2C8.7 224.3 -50.4 262.5 -100.1 253.6C-149.8 244.8 -190.1 188.9 -227.2 129C-264.4 69.1 -298.4 5.3 -295.8 -59.5C-293.1 -124.4 -253.9 -190.1 -198.5 -208.5C-143.1 -226.8 -71.6 -197.8 -4.4 -192.6C62.8 -187.3 125.6 -205.9 176.4 -186.7" fill="#457b9d"></path></g></svg>